HIERARCHY
ROOT Hips
{
	OFFSET 0.00 0.00 0.00
	CHANNELS 6 Xposition Yposition Zposition Xrotation Yrotation Zrotation
	JOINT RightUpLeg
	{
		OFFSET -4.47808 0.00000 0.00000
		CHANNELS 3 Xrotation Yrotation Zrotation
		JOINT RightLeg
		{
			OFFSET 0.00000 -16.40577 0.00000
			CHANNELS 3 Xrotation Yrotation Zrotation
			JOINT RightFoot
			{
				OFFSET 0.00000 -14.64414 0.00000
				CHANNELS 3 Xrotation Yrotation Zrotation
				JOINT RightToeBase
				{
					OFFSET 0.00000 -1.50274 5.60831
					CHANNELS 3 Xrotation Yrotation Zrotation
					End Site
					{
						OFFSET 0.00000 0.00000 2.95275
					}
				}
			}
		}
	}
	JOINT LeftUpLeg
	{
		OFFSET 4.47808 0.00000 0.00000
		CHANNELS 3 Xrotation Yrotation Zrotation
		JOINT LeftLeg
		{
			OFFSET 0.00000 -16.40577 0.00000
			CHANNELS 3 Xrotation Yrotation Zrotation
			JOINT LeftFoot
			{
				OFFSET 0.00000 -14.64414 0.00000
				CHANNELS 3 Xrotation Yrotation Zrotation
				JOINT LeftToeBase
				{
					OFFSET 0.00000 -1.50274 5.60831
					CHANNELS 3 Xrotation Yrotation Zrotation
					End Site
					{
						OFFSET 0.00000 0.00000 2.95275
					}
				}
			}
		}
	}
	JOINT Spine
	{
		OFFSET 0.00000 6.06821 0.00000
		CHANNELS 3 Xrotation Yrotation Zrotation
		JOINT RightShoulder
		{
			OFFSET 0.00000 10.01392 0.00000
			CHANNELS 3 Xrotation Yrotation Zrotation
			JOINT RightArm
			{
				OFFSET -7.19022 0.00000 0.00000
				CHANNELS 3 Xrotation Yrotation Zrotation
				JOINT RightForeArm
				{
					OFFSET -10.17747 0.00000 0.00000
					CHANNELS 3 Yrotation Zrotation Xrotation
					JOINT RightHand
					{
						OFFSET -8.39211 0.00000 0.00000
						CHANNELS 3 Xrotation Yrotation Zrotation
						End Site
						{
							OFFSET -3.93700 0.00000 0.00000
						}
						JOINT RightHandThumb1
						{
							OFFSET 0.00000 0.00000 0.00000
							CHANNELS 3 Xrotation Zrotation Yrotation
							End Site
							{
								OFFSET 0.00000 0.00000 3.93700
							}
						}
					}
				}
			}
		}
		JOINT LeftShoulder
		{
			OFFSET 0.00000 10.01392 0.00000
			CHANNELS 3 Xrotation Yrotation Zrotation
			JOINT LeftArm
			{
				OFFSET 7.19022 0.00000 0.00000
				CHANNELS 3 Xrotation Yrotation Zrotation
				JOINT LeftForeArm
				{
					OFFSET 10.17747 0.00000 0.00000
					CHANNELS 3 Yrotation Zrotation Xrotation
					JOINT LeftHand
					{
						OFFSET 8.39211 0.00000 0.00000
						CHANNELS 3 Xrotation Yrotation Zrotation
						End Site
						{
							OFFSET 3.93700 0.00000 0.00000
						}
						JOINT LeftHandThumb1
						{
							OFFSET 0.00000 0.00000 0.00000
							CHANNELS 3 Xrotation Zrotation Yrotation
							End Site
							{
								OFFSET 0.00000 0.00000 3.93700
							}
						}
					}
				}
			}
		}
		JOINT Head
		{
			OFFSET 0.00000 15.77748 0.00000
			CHANNELS 3 Xrotation Yrotation Zrotation
			End Site
			{
				OFFSET 0.00000 4.52755 0.00000
			}
		}
	}
}
MOTION
Frames: 22
Frame Time: 0.008333
 -3.7052 33.0846 -1.8103 10.3834 -2.3561 3.1936 -0.9066 -5.3903 -2.3965 -2.1117 0.0000 0.0000 -11.7051 -6.0168 -2.2096 4.9760 -0.0000 -0.0000 -1.6221 2.2246 2.1047 -0.4651 -0.0000 0.0000 -9.6430 7.2643 -12.8899 10.9543 0.0000 -0.0000 -11.2101 -1.8036 -2.4971 3.1137 -23.5060 -26.4469 -35.4168 -2.5706 34.4947 10.8018 -0.0000 15.9952 -1.5853 8.9698 10.0655 32.8623 0.0000 -24.3270 -11.2676 22.0353 32.3116 -31.5372 3.6891 -31.0558 0.7455 0.0000 25.0067 0.5888 2.5188 -13.1621 33.1476 -0.0000 26.2537 -3.0947 -0.7124 0.0138
 -3.7023 33.0878 -1.8146 10.3646 -2.3430 3.2030 -0.9241 -5.3472 -2.4119 -2.0504 -0.0000 0.0000 -11.7189 -6.0793 -2.2411 4.9730 -0.0000 0.0000 -1.6429 2.1679 2.0884 -0.4026 -0.0000 -0.0000 -9.6428 7.3105 -12.8643 11.0019 0.0000 0.0000 -11.2083 -1.7815 -2.5112 3.0901 -23.5312 -26.4629 -35.4274 -2.6183 34.5014 10.7847 -0.0000 15.9743 -1.5783 8.9654 10.0266 32.8623 0.0000 -24.3270 -11.3331 21.9802 32.3613 -31.4935 3.7200 -31.0407 0.7454 0.0000 24.9769 0.5898 2.5072 -13.2429 33.1476 -0.0000 26.2537 -3.1056 -0.7303 0.0229
 -3.6995 33.0913 -1.8184 10.3327 -2.3166 3.2063 -0.9225 -5.3082 -2.4232 -1.9957 -0.0000 -0.0000 -11.7257 -6.1507 -2.2330 5.0280 -0.0000 -0.0000 -1.6505 2.1264 2.0781 -0.3491 0.0000 -0.0000 -9.6340 7.3138 -12.8541 10.9724 -0.0000 0.0000 -11.1944 -1.7784 -2.5159 3.0719 -23.5516 -26.4907 -35.4465 -2.6933 34.5141 10.7755 -0.0000 16.0078 -1.5750 9.0010 9.9679 32.8623 0.0000 -24.3270 -11.3743 21.9431 32.3977 -31.5221 3.7842 -31.0246 0.7426 0.0000 25.0271 0.5945 2.5132 -13.3122 33.1476 -0.0000 26.2537 -3.1046 -0.7476 -0.0004
 -3.6953 33.0943 -1.8223 10.2802 -2.3032 3.2011 -0.9047 -5.2520 -2.4312 -1.9319 -0.0000 0.0000 -11.7323 -6.2197 -2.2625 5.0152 0.0000 0.0000 -1.6287 2.1055 2.0722 -0.3091 -0.0000 -0.0000 -9.6312 7.3257 -12.8440 10.9471 0.0000 0.0000 -11.1539 -1.7902 -2.4967 3.0344 -23.5173 -26.5198 -35.4436 -2.7570 34.4965 10.7895 -0.0000 16.0255 -1.5601 8.9158 9.9668 32.8623 0.0000 -24.3270 -11.4020 21.9407 32.4122 -31.5457 3.8182 -31.0050 0.7601 0.0000 25.0467 0.5950 2.5006 -13.3878 33.1476 -0.0000 26.2537 -3.1047 -0.6876 -0.0392
 -3.6916 33.0966 -1.8256 10.2306 -2.2990 3.1959 -0.8821 -5.1732 -2.4389 -1.8812 0.0000 0.0000 -11.7380 -6.3020 -2.2560 4.9678 0.0000 -0.0000 -1.5998 2.1283 2.0686 -0.2875 -0.0000 0.0000 -9.6255 7.2931 -12.8381 10.9611 0.0000 0.0000 -11.1163 -1.7761 -2.4842 2.9860 -23.4995 -26.5494 -35.4182 -2.8189 34.4835 10.8067 -0.0000 16.0473 -1.5653 8.9122 10.0034 32.8623 0.0000 -24.3270 -11.4121 21.9265 32.4252 -31.5489 3.8257 -30.9899 0.7753 0.0000 25.0829 0.5934 2.4804 -13.4599 33.1476 -0.0000 26.2537 -3.1108 -0.6530 -0.0579
 -3.6889 33.0982 -1.8301 10.1857 -2.2986 3.1875 -0.8660 -5.0836 -2.4399 -1.8291 0.0000 -0.0000 -11.7462 -6.3915 -2.2625 4.9713 -0.0000 -0.0000 -1.5735 2.1516 2.0732 -0.2700 -0.0000 0.0000 -9.6192 7.2550 -12.8524 10.9373 0.0000 0.0000 -11.0749 -1.7738 -2.4683 2.9342 -23.4768 -26.5834 -35.4141 -2.8865 34.4758 10.8347 -0.0000 16.0395 -1.5961 8.9201 10.1876 32.8623 0.0000 -24.3270 -11.4538 21.9151 32.4431 -31.5017 3.8136 -30.9684 0.7663 0.0000 25.1044 0.6171 2.5577 -13.5688 33.1476 -0.0000 26.2537 -3.1428 -0.5773 -0.0734
 -3.6857 33.0988 -1.8340 10.1304 -2.2951 3.1780 -0.8338 -5.0306 -2.4419 -1.7868 0.0000 -0.0000 -11.7734 -6.4416 -2.2722 5.0142 0.0000 0.0000 -1.5258 2.1721 2.0782 -0.2747 -0.0000 0.0000 -9.6151 7.2200 -12.8796 10.9507 -0.0000 0.0000 -11.0249 -1.7701 -2.4466 2.9054 -23.4659 -26.6115 -35.4160 -2.9244 34.4703 10.8286 -0.0000 16.0704 -1.5954 8.8706 10.2383 32.8623 0.0000 -24.3270 -11.4575 21.9147 32.4424 -31.5143 3.8102 -30.9463 0.7803 0.0000 25.1880 0.6267 2.5815 -13.6505 33.1476 -0.0000 26.2537 -3.1693 -0.5231 -0.1156
 -3.6818 33.0984 -1.8361 10.0676 -2.2620 3.1706 -0.7742 -5.0189 -2.4474 -1.7780 -0.0000 0.0000 -11.7706 -6.4754 -2.2814 4.9580 0.0000 -0.0000 -1.4751 2.1893 2.0783 -0.2768 -0.0000 0.0000 -9.6152 7.1602 -12.8974 10.9669 -0.0000 0.0000 -10.9702 -1.7978 -2.4282 2.8744 -23.4512 -26.6498 -35.3887 -2.9451 34.4702 10.8116 -0.0000 16.0381 -1.5886 8.8671 10.1994 32.8623 0.0000 -24.3270 -11.4651 21.9141 32.4403 -31.5026 3.7939 -30.9252 0.8059 0.0000 25.2627 0.6261 2.5655 -13.7206 33.1476 -0.0000 26.2537 -3.2024 -0.4813 -0.1743
 -3.6780 33.0973 -1.8392 10.0161 -2.2420 3.1615 -0.7254 -4.9964 -2.4529 -1.7734 0.0000 0.0000 -11.7828 -6.4924 -2.2839 5.0451 0.0000 -0.0000 -1.4314 2.2281 2.0809 -0.2846 -0.0000 -0.0000 -9.6234 7.0842 -12.8992 10.9717 0.0000 -0.0000 -10.9271 -1.8145 -2.4067 2.8767 -23.4586 -26.6702 -35.3919 -2.9443 34.4723 10.7924 -0.0000 16.0131 -1.5823 8.8641 10.1631 32.8623 0.0000 -24.3270 -11.4502 21.9220 32.4313 -31.5154 3.7901 -30.9036 0.8198 0.0000 25.3299 0.6228 2.5437 -13.7628 33.1476 -0.0000 26.2537 -3.2225 -0.4417 -0.2251
 -3.6748 33.0958 -1.8430 9.9673 -2.2246 3.1528 -0.6785 -4.9792 -2.4546 -1.7764 0.0000 -0.0000 -11.7886 -6.5234 -2.2771 4.9998 0.0000 0.0000 -1.3882 2.2644 2.0839 -0.2997 0.0000 -0.0000 -9.6285 7.0213 -12.9076 10.9600 0.0000 -0.0000 -10.8849 -1.8263 -2.3915 2.8952 -23.4618 -26.6746 -35.4227 -2.9681 34.4699 10.7861 -0.0000 15.9734 -1.5790 8.8540 10.1537 32.8623 0.0000 -24.3270 -11.4521 21.9175 32.4411 -31.4905 3.7867 -30.8896 0.8043 0.0000 25.3709 0.6461 2.6191 -13.8628 33.1476 -0.0000 26.2537 -3.2508 -0.4143 -0.2655
 -3.6705 33.0939 -1.8466 9.9312 -2.2041 3.1531 -0.6437 -4.9926 -2.4677 -1.7820 -0.0000 0.0000 -11.8042 -6.5188 -2.2685 4.9864 -0.0000 -0.0000 -1.3564 2.2856 2.0762 -0.3145 0.0000 -0.0000 -9.6292 6.9742 -12.9265 10.9962 0.0000 -0.0000 -10.8568 -1.8494 -2.3842 2.9095 -23.4602 -26.6802 -35.4366 -2.9779 34.4637 10.7764 -0.0000 15.9661 -1.5705 8.8595 10.0943 32.8623 0.0000 -24.3270 -11.4353 21.9433 32.4446 -31.4887 3.7757 -30.8824 0.8003 0.0000 25.3631 0.6577 2.6669 -13.8589 33.1476 -0.0000 26.2537 -3.2915 -0.3675 -0.3119
 -3.6665 33.0923 -1.8518 9.9131 -2.1771 3.1586 -0.6253 -5.0142 -2.4820 -1.7977 0.0000 0.0000 -11.8141 -6.5230 -2.2560 5.0108 -0.0000 0.0000 -1.3507 2.2871 2.0635 -0.3192 -0.0000 -0.0000 -9.6395 6.9459 -12.9285 10.9998 -0.0000 0.0000 -10.8507 -1.8682 -2.3833 2.9240 -23.4725 -26.6843 -35.4576 -2.9855 34.4642 10.7864 -0.0000 15.9721 -1.5742 8.8869 10.0870 32.8623 0.0000 -24.3270 -11.4256 21.9663 32.4496 -31.5008 3.7684 -30.8777 0.7889 0.0000 25.3351 0.6578 2.6662 -13.8651 33.1476 -0.0000 26.2537 -3.3297 -0.3249 -0.3533
 -3.6639 33.0905 -1.8565 9.8953 -2.1581 3.1529 -0.6047 -5.0350 -2.4824 -1.8157 -0.0000 -0.0000 -11.8216 -6.5103 -2.2652 5.0672 -0.0000 -0.0000 -1.3383 2.2914 2.0640 -0.3336 0.0000 -0.0000 -9.6462 6.9206 -12.9296 11.0004 -0.0000 0.0000 -10.8445 -1.9000 -2.3760 2.9586 -23.4809 -26.6852 -35.5038 -3.0166 34.4816 10.8306 -0.0000 15.9480 -1.6126 8.8257 10.3974 32.8623 0.0000 -24.3270 -11.4108 22.0192 32.4648 -31.5212 3.7465 -30.8890 0.8145 0.0000 25.2266 0.6481 2.6478 -13.7591 33.1476 -0.0000 26.2537 -3.3762 -0.2622 -0.3783
 -3.6598 33.0890 -1.8615 9.8879 -2.1366 3.1559 -0.6026 -5.0630 -2.4928 -1.8202 -0.0000 0.0000 -11.8318 -6.5071 -2.2637 5.0103 -0.0000 -0.0000 -1.3431 2.2934 2.0540 -0.3352 0.0000 -0.0000 -9.6509 6.8910 -12.9226 10.9828 0.0000 0.0000 -10.8492 -1.9121 -2.3759 2.9981 -23.5077 -26.6621 -35.5206 -2.9883 34.4743 10.8493 -0.0000 15.9357 -1.6185 8.8359 10.4233 32.8623 0.0000 -24.3270 -11.4216 22.0271 32.4833 -31.5491 3.7764 -30.8856 0.7861 0.0000 25.2732 0.6543 2.6723 -13.7631 33.1476 -0.0000 26.2537 -3.4195 -0.2422 -0.4070
 -3.6568 33.0884 -1.8668 9.8932 -2.1209 3.1573 -0.6086 -5.0696 -2.4971 -1.8376 0.0000 0.0000 -11.8280 -6.5218 -2.2651 5.0598 0.0000 -0.0000 -1.3601 2.2897 2.0464 -0.3329 0.0000 0.0000 -9.6587 6.8870 -12.9287 10.9995 0.0000 -0.0000 -10.8688 -1.9183 -2.3710 3.0221 -23.5410 -26.6509 -35.5447 -2.9640 34.4858 10.8719 -0.0000 15.9659 -1.6234 8.8539 10.4334 32.8623 0.0000 -24.3270 -11.4308 22.0283 32.4872 -31.5212 3.7714 -30.8723 0.7641 0.0000 25.2881 0.6574 2.6895 -13.7404 33.1476 -0.0000 26.2537 -3.4672 -0.2320 -0.4512
 -3.6537 33.0884 -1.8731 9.9160 -2.1117 3.1630 -0.6437 -5.0942 -2.5047 -1.8380 -0.0000 0.0000 -11.8294 -6.5136 -2.2759 5.0614 0.0000 0.0000 -1.4021 2.2968 2.0367 -0.3218 0.0000 -0.0000 -9.6610 6.8613 -12.9050 10.9963 -0.0000 0.0000 -10.9086 -1.9097 -2.3718 3.0376 -23.5735 -26.6367 -35.5351 -2.9208 34.4952 10.8951 -0.0000 15.9736 -1.6226 8.8389 10.4452 32.8623 0.0000 -24.3270 -11.4076 22.0506 32.4746 -31.5225 3.7396 -30.8618 0.7428 0.0000 25.2553 0.6674 2.7330 -13.7280 33.1476 -0.0000 26.2537 -3.5013 -0.2124 -0.4788
 -3.6500 33.0886 -1.8793 9.9341 -2.1057 3.1678 -0.6751 -5.1134 -2.5143 -1.8367 0.0000 0.0000 -11.8315 -6.4959 -2.2956 5.0575 0.0000 0.0000 -1.4339 2.2697 2.0243 -0.3155 -0.0000 -0.0000 -9.6628 6.8991 -12.9172 11.0473 -0.0000 0.0000 -10.9482 -1.9096 -2.3659 3.0453 -23.5611 -26.6283 -35.4896 -2.8779 34.4827 10.8768 -0.0000 15.9665 -1.6171 8.8949 10.3471 32.8623 0.0000 -24.3270 -11.3907 22.0593 32.4626 -31.5031 3.7295 -30.8424 0.7301 0.0000 25.2481 0.6581 2.6947 -13.7286 33.1476 -0.0000 26.2537 -3.5048 -0.1726 -0.4924
 -3.6465 33.0894 -1.8850 9.9558 -2.1162 3.1732 -0.7142 -5.1323 -2.5215 -1.8323 -0.0000 0.0000 -11.8210 -6.4859 -2.2770 5.0494 -0.0000 0.0000 -1.4638 2.2251 2.0165 -0.3087 0.0000 -0.0000 -9.6616 6.9378 -12.8864 11.0247 -0.0000 -0.0000 -10.9950 -1.8776 -2.3629 3.0873 -23.5924 -26.6121 -35.5085 -2.8566 34.4989 10.8925 -0.0000 15.9744 -1.6238 8.8994 10.3840 32.8623 0.0000 -24.3270 -11.3802 22.0478 32.4607 -31.4744 3.7184 -30.8293 0.7172 0.0000 25.2300 0.6584 2.6910 -13.7541 33.1476 -0.0000 26.2537 -3.5117 -0.1686 -0.5056
 -3.6423 33.0909 -1.8922 9.9845 -2.1350 3.1834 -0.7698 -5.1314 -2.5350 -1.8149 -0.0000 0.0000 -11.8155 -6.4731 -2.2919 5.0585 0.0000 0.0000 -1.5051 2.2024 2.0030 -0.2986 0.0000 0.0000 -9.6464 6.9685 -12.8863 10.9833 0.0000 0.0000 -11.0425 -1.8390 -2.3629 3.0940 -23.6032 -26.6022 -35.4947 -2.8280 34.5118 10.8923 -0.0000 15.9706 -1.6334 8.9172 10.4242 32.8623 0.0000 -24.3270 -11.3668 22.0615 32.4632 -31.5014 3.7147 -30.8337 0.7177 0.0000 25.2489 0.6472 2.6480 -13.7391 33.1476 -0.0000 26.2537 -3.5229 -0.1646 -0.5216
 -3.6381 33.0924 -1.8976 9.9944 -2.1692 3.1880 -0.8042 -5.1347 -2.5429 -1.7988 -0.0000 0.0000 -11.8004 -6.4537 -2.2711 5.0326 -0.0000 -0.0000 -1.5126 2.1780 1.9922 -0.3037 -0.0000 0.0000 -9.6400 7.0260 -12.8715 10.9997 0.0000 0.0000 -11.0735 -1.7900 -2.3497 3.0779 -23.5826 -26.6029 -35.4517 -2.8015 34.5070 10.9088 -0.0000 15.8778 -1.6280 8.8528 10.4634 32.8623 0.0000 -24.3270 -11.3437 22.0785 32.4553 -31.5658 3.7268 -30.8312 0.7151 0.0000 25.3510 0.6515 2.6572 -13.7815 33.1476 -0.0000 26.2537 -3.5190 -0.1473 -0.5437
 -3.6334 33.0947 -1.9037 10.0104 -2.2004 3.1840 -0.8460 -5.1069 -2.5468 -1.7793 0.0000 -0.0000 -11.7799 -6.4464 -2.2736 5.0695 0.0000 -0.0000 -1.5325 2.1525 1.9902 -0.3007 -0.0000 -0.0000 -9.6311 7.0743 -12.8713 11.0015 0.0000 -0.0000 -11.1184 -1.7501 -2.3127 3.1144 -23.5982 -26.6299 -35.4924 -2.8139 34.5605 10.8890 -0.0000 15.9866 -1.6116 8.9134 10.2919 32.8623 0.0000 -24.3270 -11.3070 22.0965 32.4199 -31.5852 3.7007 -30.8261 0.7292 0.0000 25.3420 0.6550 2.6745 -13.7657 33.1476 -0.0000 26.2537 -3.5026 -0.1235 -0.5894
 -3.6289 33.0962 -1.9098 10.0189 -2.2356 3.1867 -0.8805 -5.0797 -2.5535 -1.7592 0.0000 0.0000 -11.7770 -6.4540 -2.2727 5.0814 -0.0000 0.0000 -1.5428 2.1380 1.9852 -0.3015 0.0000 -0.0000 -9.6277 7.1023 -12.8639 11.0193 -0.0000 0.0000 -11.1407 -1.7092 -2.2979 3.0926 -23.5721 -26.6491 -35.4626 -2.8266 34.5806 10.8918 -0.0000 15.9884 -1.6147 8.9225 10.3008 32.8623 0.0000 -24.3270 -11.2950 22.1342 32.4333 -31.6192 3.6776 -30.8638 0.7652 0.0000 25.2854 0.6499 2.6635 -13.7174 33.1476 -0.0000 26.2537 -3.5115 -0.1073 -0.6076
